<svg width="24" height="24" viewBox="0 0 24 24" fill="none" xmlns="http://www.w3.org/2000/svg">
<path d="M20 12V6.99999C19.9996 6.64927 19.9071 6.3048 19.7315 6.00116C19.556 5.69751 19.3037 5.44536 19 5.26999L12 1.26999C11.696 1.09446 11.3511 1.00204 11 1.00204C10.6489 1.00204 10.304 1.09446 10 1.26999L3 5.26999C2.69626 5.44536 2.44398 5.69751 2.26846 6.00116C2.09294 6.3048 2.00036 6.64927 2 6.99999V15C2.00036 15.3507 2.09294 15.6952 2.26846 15.9988C2.44398 16.3025 2.69626 16.5546 3 16.73L7.5 19.5" stroke="#363636" stroke-width="1.5" stroke-linecap="round" stroke-linejoin="round"/>
<path d="M2.26953 5.95999L10.9995 11.01L19.7295 5.95999" stroke="#363636" stroke-width="1.5" stroke-linecap="round" stroke-linejoin="round"/>
<path d="M11 14V11" stroke="#363636" stroke-width="1.5" stroke-linecap="round" stroke-linejoin="round"/>
<path d="M14 23V17.375H11.0664C10.693 17.375 10.5065 17.375 10.3639 17.4431C10.2385 17.503 10.1366 17.5987 10.0727 17.7163C10 17.85 10 18.025 10 18.375V23H14ZM14 23H18M14 23V14C14 13.65 14 13.475 14.0727 13.3413C14.1366 13.2237 14.2385 13.128 14.3639 13.0681C14.5065 13 14.693 13 15.0664 13H16.9331C17.3064 13 17.4936 13 17.6363 13.0681C17.7617 13.128 17.8632 13.2237 17.9271 13.3413C17.9997 13.475 18 13.65 18 14V23M18 23L22 23V16.5C22 16.15 21.9997 15.975 21.9271 15.8413C21.8632 15.7237 21.7617 15.628 21.6363 15.5681C21.4936 15.5 21.3067 15.5 20.9333 15.5H18V23Z" stroke="#363636" stroke-width="1.5" stroke-linecap="round" stroke-linejoin="round"/>
</svg>
