<svg width="24" height="24" viewBox="0 0 24 24" fill="none" xmlns="http://www.w3.org/2000/svg">
<path d="M13 2H6C5.46957 2 4.96086 2.21071 4.58579 2.58579C4.21071 2.96086 4 3.46957 4 4V20C4 20.5304 4.21071 21.0391 4.58579 21.4142C4.96086 21.7893 5.46957 22 6 22H18C18.5304 22 19.0391 21.7893 19.4142 21.4142C19.7893 21.0391 20 20.5304 20 20V9L13 2Z" stroke="#363636" stroke-width="1.5" stroke-linecap="round" stroke-linejoin="round"/>
<path d="M10 7L8 5L6 7" stroke="#363636" stroke-width="1.5" stroke-linecap="round" stroke-linejoin="round"/>
<path d="M8 5L8 9" stroke="#363636" stroke-width="1.5" stroke-linecap="round" stroke-linejoin="round"/>
<path d="M13 2V9H20" stroke="#363636" stroke-width="1.5" stroke-linecap="round" stroke-linejoin="round"/>
<path d="M17.3179 13.936L15.6699 18H14.9659L13.3179 13.936H13.9619C14.0232 13.936 14.0739 13.9507 14.1139 13.98C14.1539 14.0093 14.1805 14.0467 14.1939 14.092L15.1659 16.588C15.2005 16.692 15.2299 16.796 15.2539 16.9C15.2805 17.0013 15.3045 17.1027 15.3259 17.204C15.3472 17.1027 15.3712 17.0013 15.3979 16.9C15.4245 16.7987 15.4565 16.6947 15.4939 16.588L16.4779 14.092C16.4939 14.0467 16.5219 14.0093 16.5619 13.98C16.6019 13.9507 16.6499 13.936 16.7059 13.936H17.3179Z" fill="#363636"/>
<path d="M12.7722 14.636C12.7508 14.6707 12.7282 14.696 12.7042 14.712C12.6802 14.7253 12.6495 14.732 12.6122 14.732C12.5695 14.732 12.5215 14.7173 12.4682 14.688C12.4175 14.6587 12.3548 14.6267 12.2802 14.592C12.2082 14.5573 12.1228 14.5253 12.0242 14.496C11.9255 14.4667 11.8082 14.452 11.6722 14.452C11.5602 14.452 11.4575 14.4667 11.3642 14.496C11.2735 14.5227 11.1962 14.5613 11.1322 14.612C11.0682 14.66 11.0188 14.7187 10.9842 14.788C10.9495 14.8547 10.9322 14.9267 10.9322 15.004C10.9322 15.1053 10.9615 15.1893 11.0202 15.256C11.0815 15.3227 11.1602 15.38 11.2562 15.428C11.3548 15.476 11.4655 15.52 11.5882 15.56C11.7135 15.5973 11.8402 15.6373 11.9682 15.68C12.0988 15.7227 12.2255 15.772 12.3482 15.828C12.4735 15.8813 12.5842 15.9493 12.6802 16.032C12.7788 16.112 12.8575 16.2093 12.9162 16.324C12.9775 16.4387 13.0082 16.5787 13.0082 16.744C13.0082 16.9333 12.9735 17.1093 12.9042 17.272C12.8375 17.432 12.7375 17.5707 12.6042 17.688C12.4735 17.8053 12.3108 17.8973 12.1162 17.964C11.9215 18.0307 11.6988 18.064 11.4482 18.064C11.1682 18.064 10.9095 18.0173 10.6722 17.924C10.4348 17.8307 10.2362 17.712 10.0762 17.568L10.2602 17.268C10.2815 17.2307 10.3082 17.2027 10.3402 17.184C10.3722 17.1627 10.4148 17.152 10.4682 17.152C10.5188 17.152 10.5708 17.1707 10.6242 17.208C10.6775 17.2453 10.7415 17.2867 10.8162 17.332C10.8908 17.3747 10.9815 17.4147 11.0882 17.452C11.1948 17.4867 11.3282 17.504 11.4882 17.504C11.6215 17.504 11.7375 17.488 11.8362 17.456C11.9348 17.4213 12.0162 17.376 12.0802 17.32C12.1468 17.2613 12.1962 17.1947 12.2282 17.12C12.2602 17.0453 12.2762 16.9667 12.2762 16.884C12.2762 16.7773 12.2455 16.6893 12.1842 16.62C12.1255 16.548 12.0468 16.4867 11.9482 16.436C11.8522 16.3853 11.7415 16.3413 11.6162 16.304C11.4908 16.2667 11.3628 16.2267 11.2322 16.184C11.1015 16.1413 10.9735 16.092 10.8482 16.036C10.7228 15.98 10.6108 15.9093 10.5122 15.824C10.4162 15.7387 10.3375 15.6347 10.2762 15.512C10.2175 15.3893 10.1882 15.24 10.1882 15.064C10.1882 14.9067 10.2202 14.756 10.2842 14.612C10.3508 14.468 10.4455 14.3413 10.5682 14.232C10.6935 14.1227 10.8468 14.036 11.0282 13.972C11.2122 13.9053 11.4215 13.872 11.6562 13.872C11.9255 13.872 12.1682 13.9147 12.3842 14C12.6028 14.0853 12.7895 14.2027 12.9442 14.352L12.7722 14.636Z" fill="#363636"/>
<path d="M9.39592 14.696C9.37192 14.7253 9.34792 14.7493 9.32392 14.768C9.30258 14.784 9.27058 14.792 9.22792 14.792C9.18525 14.792 9.13992 14.776 9.09192 14.744C9.04658 14.7093 8.98792 14.6733 8.91592 14.636C8.84658 14.596 8.76125 14.56 8.65992 14.528C8.56125 14.4933 8.43858 14.476 8.29192 14.476C8.09992 14.476 7.93058 14.5107 7.78392 14.58C7.63725 14.6493 7.51458 14.748 7.41592 14.876C7.31992 15.004 7.24658 15.16 7.19592 15.344C7.14525 15.528 7.11992 15.7347 7.11992 15.964C7.11992 16.2013 7.14658 16.4133 7.19992 16.6C7.25325 16.784 7.32925 16.94 7.42792 17.068C7.52658 17.1933 7.64658 17.2893 7.78792 17.356C7.92925 17.42 8.08658 17.452 8.25992 17.452C8.42792 17.452 8.56658 17.432 8.67592 17.392C8.78525 17.3493 8.87592 17.304 8.94792 17.256C9.01992 17.208 9.07992 17.164 9.12792 17.124C9.17592 17.0813 9.22525 17.06 9.27592 17.06C9.33992 17.06 9.38925 17.084 9.42392 17.132L9.64792 17.42C9.55458 17.5347 9.44925 17.632 9.33192 17.712C9.21725 17.792 9.09458 17.8573 8.96392 17.908C8.83325 17.9587 8.69592 17.996 8.55192 18.02C8.41058 18.044 8.26658 18.056 8.11992 18.056C7.86658 18.056 7.62925 18.0093 7.40792 17.916C7.18925 17.8227 6.99858 17.6867 6.83592 17.508C6.67592 17.3293 6.54925 17.1107 6.45592 16.852C6.36258 16.5907 6.31592 16.2947 6.31592 15.964C6.31592 15.6627 6.35725 15.384 6.43992 15.128C6.52525 14.872 6.64925 14.652 6.81192 14.468C6.97725 14.2813 7.17992 14.136 7.41992 14.032C7.65992 13.9253 7.93458 13.872 8.24392 13.872C8.53458 13.872 8.79058 13.9187 9.01192 14.012C9.23325 14.1053 9.43058 14.2373 9.60392 14.408L9.39592 14.696Z" fill="#363636"/>
</svg>
