<svg width="24" height="24" viewBox="0 0 24 24" fill="none" xmlns="http://www.w3.org/2000/svg">
<path d="M13 2H6C5.46957 2 4.96086 2.21071 4.58579 2.58579C4.21071 2.96086 4 3.46957 4 4V20C4 20.5304 4.21071 21.0391 4.58579 21.4142C4.96086 21.7893 5.46957 22 6 22H18C18.5304 22 19.0391 21.7893 19.4142 21.4142C19.7893 21.0391 20 20.5304 20 20V9L13 2Z" stroke="#363636" stroke-width="1.5" stroke-linecap="round" stroke-linejoin="round"/>
<path d="M10 7L8 5L6 7" stroke="#363636" stroke-width="1.5" stroke-linecap="round" stroke-linejoin="round"/>
<path d="M8 5L8 9" stroke="#363636" stroke-width="1.5" stroke-linecap="round" stroke-linejoin="round"/>
<path d="M13 2V9H20" stroke="#363636" stroke-width="1.5" stroke-linecap="round" stroke-linejoin="round"/>
<path d="M16.0745 12.096V18H15.2905V12.096H16.0745Z" fill="#363636"/>
<path d="M13.4025 14.92C13.2745 14.752 13.1358 14.6347 12.9865 14.568C12.8398 14.5013 12.6745 14.468 12.4905 14.468C12.1332 14.468 11.8558 14.5973 11.6585 14.856C11.4638 15.112 11.3665 15.4867 11.3665 15.98C11.3665 16.2387 11.3878 16.46 11.4305 16.644C11.4758 16.8253 11.5398 16.9747 11.6225 17.092C11.7078 17.2067 11.8118 17.292 11.9345 17.348C12.0572 17.4013 12.1958 17.428 12.3505 17.428C12.5772 17.428 12.7732 17.3773 12.9385 17.276C13.1038 17.1747 13.2585 17.032 13.4025 16.848V14.92ZM14.1865 12.096V18H13.7145C13.6052 18 13.5372 17.948 13.5105 17.844L13.4425 17.376C13.2692 17.5813 13.0718 17.7467 12.8505 17.872C12.6318 17.9947 12.3785 18.056 12.0905 18.056C11.8585 18.056 11.6478 18.0107 11.4585 17.92C11.2718 17.8293 11.1118 17.6973 10.9785 17.524C10.8452 17.348 10.7425 17.1307 10.6705 16.872C10.5985 16.6133 10.5625 16.316 10.5625 15.98C10.5625 15.6787 10.6025 15.3987 10.6825 15.14C10.7625 14.8813 10.8785 14.6573 11.0305 14.468C11.1825 14.2787 11.3665 14.1307 11.5825 14.024C11.7985 13.9147 12.0425 13.86 12.3145 13.86C12.5598 13.86 12.7678 13.9 12.9385 13.98C13.1118 14.06 13.2665 14.1733 13.4025 14.32V12.096H14.1865Z" fill="#363636"/>
<path d="M9.23992 15.516C9.23992 15.3613 9.21725 15.2187 9.17192 15.088C9.12925 14.9573 9.06525 14.844 8.97992 14.748C8.89458 14.652 8.79058 14.5773 8.66792 14.524C8.54525 14.4707 8.40392 14.444 8.24392 14.444C7.91592 14.444 7.65725 14.5387 7.46792 14.728C7.28125 14.9173 7.16258 15.18 7.11192 15.516H9.23992ZM9.88392 17.42C9.78792 17.532 9.67725 17.6293 9.55192 17.712C9.42658 17.792 9.29325 17.8573 9.15192 17.908C9.01058 17.9587 8.86392 17.996 8.71192 18.02C8.56258 18.044 8.41458 18.056 8.26792 18.056C7.98792 18.056 7.72792 18.0093 7.48792 17.916C7.25058 17.82 7.04392 17.6813 6.86792 17.5C6.69458 17.316 6.55858 17.0893 6.45992 16.82C6.36392 16.548 6.31592 16.236 6.31592 15.884C6.31592 15.6013 6.35992 15.3387 6.44792 15.096C6.53592 14.8507 6.66125 14.6373 6.82392 14.456C6.98925 14.2747 7.19058 14.132 7.42792 14.028C7.66525 13.924 7.93192 13.872 8.22792 13.872C8.47592 13.872 8.70392 13.9133 8.91192 13.996C9.12258 14.076 9.30392 14.1933 9.45592 14.348C9.60792 14.5027 9.72658 14.6933 9.81192 14.92C9.89992 15.1467 9.94392 15.4053 9.94392 15.696C9.94392 15.816 9.93058 15.8973 9.90392 15.94C9.87725 15.98 9.82792 16 9.75592 16H7.09192C7.09992 16.2427 7.13458 16.4547 7.19592 16.636C7.25725 16.8147 7.34125 16.964 7.44792 17.084C7.55725 17.204 7.68658 17.2933 7.83592 17.352C7.98525 17.4107 8.15192 17.44 8.33592 17.44C8.50925 17.44 8.65858 17.42 8.78392 17.38C8.91192 17.34 9.02125 17.2973 9.11192 17.252C9.20525 17.204 9.28258 17.16 9.34392 17.12C9.40792 17.08 9.46392 17.06 9.51192 17.06C9.57592 17.06 9.62525 17.084 9.65992 17.132L9.88392 17.42Z" fill="#363636"/>
</svg>
