<svg width="24" height="24" viewBox="0 0 24 24" fill="none" xmlns="http://www.w3.org/2000/svg">
<path d="M22 19.3333C22 19.7754 21.7893 20.1993 21.4142 20.5118C21.0391 20.8244 20.5304 21 20 21H4C3.46957 21 2.96086 20.8244 2.58579 20.5118C2.21071 20.1993 2 19.7754 2 19.3333V7.66667C2 7.22464 2.21071 6.80072 2.58579 6.48816C2.96086 6.17559 3.46957 6 4 6H9L11 8.5H20C20.5304 8.5 21.0391 8.67559 21.4142 8.98816C21.7893 9.30072 22 9.72464 22 10.1667V19.3333Z" stroke="#363636" stroke-width="1.5" stroke-linecap="round" stroke-linejoin="round"/>
<path d="M21 8.5L21 4.55557C21 4.14301 20.8104 3.74735 20.4728 3.45563C20.1352 3.1639 19.6774 3.00002 19.2 3.00002L4.8 3.00001C4.32261 3.00001 3.86477 3.1639 3.52721 3.45563C3.18964 3.74735 3 4.14301 3 4.55557L3 5.66667" stroke="#363636" stroke-width="1.5" stroke-linecap="round" stroke-linejoin="round"/>
<path d="M10 18L16 14.5L10 11V18Z" stroke="#363636" stroke-width="1.5" stroke-linecap="round" stroke-linejoin="round"/>
</svg>
