<svg width="24" height="24" viewBox="0 0 24 24" fill="none" xmlns="http://www.w3.org/2000/svg">
<path fill-rule="evenodd" clip-rule="evenodd" d="M12 15C13.1046 15 14 14.1046 14 13C14 11.8954 13.1046 11 12 11C10.8954 11 10 11.8954 10 13C10 14.1046 10.8954 15 12 15Z" fill="#363636"/>
<path d="M20.1818 19C21.405 17.3757 22 15.4354 22 13.3529C22 7.63445 17.5228 3 12 3C6.47715 3 2 7.63445 2 13.3529C2 15.4052 2.57786 17.3193 3.81818 19" stroke="#363636" stroke-width="1.5" stroke-linecap="round"/>
<path d="M16 16C16.7025 15.1878 17 14.2177 17 13C17 10.3172 14.7614 8 12 8C9.23858 8 7 10.3172 7 13C7 14.2026 7.28893 15.1597 8 16" stroke="#363636" stroke-width="1.5" stroke-linecap="round"/>
</svg>
