<svg width="24" height="24" viewBox="0 0 24 24" fill="none" xmlns="http://www.w3.org/2000/svg">
<path d="M9 20V11H4.59961C4.03956 11 3.75981 11 3.5459 11.109C3.35774 11.2049 3.20487 11.3579 3.10899 11.546C3 11.7599 3 12.0399 3 12.6V20H9ZM9 20H15M9 20V5.59998C9 5.03992 9 4.75993 9.10899 4.54602C9.20487 4.35786 9.35774 4.20487 9.5459 4.10899C9.75981 4 10.0396 4 10.5996 4H13.3996C13.9597 4 14.2405 4 14.4544 4.10899C14.6425 4.20487 14.7948 4.35786 14.8906 4.54602C14.9996 4.75993 15 5.03992 15 5.59998V20M15 20L21 20V9.59998C21 9.03992 20.9996 8.75993 20.8906 8.54602C20.7948 8.35786 20.6425 8.20487 20.4544 8.10899C20.2405 8 19.9601 8 19.4 8H15V20Z" stroke="#363636" stroke-width="1.5" stroke-linecap="round" stroke-linejoin="round"/>
</svg>
