<svg width="24" height="24" viewBox="0 0 24 24" fill="none" xmlns="http://www.w3.org/2000/svg">
<path d="M20.685 8.5C19.5748 4.18693 15.6596 1 11 1C5.47715 1 1 5.47715 1 11C1 15.6596 4.18693 19.5748 8.5 20.685" stroke="#363636" stroke-width="1.5" stroke-linecap="round" stroke-linejoin="round"/>
<path d="M1 11H11" stroke="#363636" stroke-width="1.5" stroke-linecap="round" stroke-linejoin="round"/>
<path d="M14.3812 7C13.7296 4.78568 12.5803 2.73011 11 1C8.49872 3.73835 7.07725 7.29203 7 11C7.02844 12.3652 7.23912 13.7096 7.61882 15" stroke="#363636" stroke-width="1.5" stroke-linecap="round" stroke-linejoin="round"/>
<path d="M17 22C20.3137 22 23 19.3137 23 16C23 12.6863 20.3137 10 17 10C13.6863 10 11 12.6863 11 16C11 19.3137 13.6863 22 17 22Z" stroke="#363636" stroke-width="1.5" stroke-linecap="round" stroke-linejoin="round"/>
<path d="M17 13V19" stroke="#363636" stroke-width="1.5" stroke-linecap="round" stroke-linejoin="round"/>
<path d="M14 16H20" stroke="#363636" stroke-width="1.5" stroke-linecap="round" stroke-linejoin="round"/>
</svg>
