<svg width="24" height="24" viewBox="0 0 24 24" fill="none" xmlns="http://www.w3.org/2000/svg">
<path d="M17 10.4005V5.59951C16.9998 5.38903 16.9484 5.18231 16.8509 5.00008C16.7533 4.81786 16.6132 4.66653 16.4444 4.56129L12.5556 2.1608C12.3866 2.05546 12.195 2 12 2C11.805 2 11.6134 2.05546 11.4444 2.1608L7.55556 4.56129C7.38681 4.66653 7.24666 4.81786 7.14915 5.00008C7.05163 5.18231 7.0002 5.38903 7 5.59951V10.4005C7.0002 10.611 7.05163 10.8177 7.14915 10.9999C7.24666 11.1821 7.38681 11.3335 7.55556 11.4387L11.4444 13.8392C11.6134 13.9445 11.805 14 12 14C12.195 14 12.3866 13.9445 12.5556 13.8392L16.4444 11.4387C16.6132 11.3335 16.7533 11.1821 16.8509 10.9999C16.9484 10.8177 16.9998 10.611 17 10.4005Z" stroke="#363636" stroke-width="1.5" stroke-linecap="round" stroke-linejoin="round"/>
<path d="M12 19.4005V14.5995C11.9998 14.389 11.9484 14.1823 11.8509 14.0001C11.7533 13.8179 11.6132 13.6665 11.4444 13.5613L7.55556 11.1608C7.38665 11.0555 7.19504 11 7 11C6.80496 11 6.61335 11.0555 6.44444 11.1608L2.55556 13.5613C2.38681 13.6665 2.24666 13.8179 2.14915 14.0001C2.05163 14.1823 2.0002 14.389 2 14.5995V19.4005C2.0002 19.611 2.05163 19.8177 2.14915 19.9999C2.24666 20.1821 2.38681 20.3335 2.55556 20.4387L6.44444 22.8392C6.61335 22.9445 6.80496 23 7 23C7.19504 23 7.38665 22.9445 7.55556 22.8392L11.4444 20.4387C11.6132 20.3335 11.7533 20.1821 11.8509 19.9999C11.9484 19.8177 11.9998 19.611 12 19.4005Z" stroke="#363636" stroke-width="1.5" stroke-linecap="round" stroke-linejoin="round"/>
<path d="M22 19.4005V14.5995C21.9998 14.389 21.9484 14.1823 21.8509 14.0001C21.7533 13.8179 21.6132 13.6665 21.4444 13.5613L17.5556 11.1608C17.3866 11.0555 17.195 11 17 11C16.805 11 16.6134 11.0555 16.4444 11.1608L12.5556 13.5613C12.3868 13.6665 12.2467 13.8179 12.1491 14.0001C12.0516 14.1823 12.0002 14.389 12 14.5995V19.4005C12.0002 19.611 12.0516 19.8177 12.1491 19.9999C12.2467 20.1821 12.3868 20.3335 12.5556 20.4387L16.4444 22.8392C16.6134 22.9445 16.805 23 17 23C17.195 23 17.3866 22.9445 17.5556 22.8392L21.4444 20.4387C21.6132 20.3335 21.7533 20.1821 21.8509 19.9999C21.9484 19.8177 21.9998 19.611 22 19.4005Z" stroke="#363636" stroke-width="1.5" stroke-linecap="round" stroke-linejoin="round"/>
<path d="M7 5L12 8L17 5" stroke="#363636" stroke-width="1.5" stroke-linecap="round" stroke-linejoin="round"/>
<path d="M2 14L7 17L12 14" stroke="#363636" stroke-width="1.5" stroke-linecap="round" stroke-linejoin="round"/>
<path d="M12 14L17 17L22 14" stroke="#363636" stroke-width="1.5" stroke-linecap="round" stroke-linejoin="round"/>
<path d="M12 14V8" stroke="#363636" stroke-width="1.5" stroke-linecap="round" stroke-linejoin="round"/>
<path d="M7 23V17" stroke="#363636" stroke-width="1.5" stroke-linecap="round" stroke-linejoin="round"/>
<path d="M17 23V17" stroke="#363636" stroke-width="1.5" stroke-linecap="round" stroke-linejoin="round"/>
</svg>
