<svg width="24" height="24" viewBox="0 0 24 24" fill="none" xmlns="http://www.w3.org/2000/svg">
<rect x="1" y="20" width="16" height="22" rx="2" transform="rotate(-90 1 20)" stroke="#363636" stroke-width="1.5" stroke-linecap="round" stroke-linejoin="round"/>
<path d="M18 20V18.3333C18 17.4493 17.6839 16.6014 17.1213 15.9763C16.5587 15.3512 15.7956 15 15 15H9C8.20435 15 7.44129 15.3512 6.87868 15.9763C6.31607 16.6014 6 17.4493 6 18.3333V20" stroke="#363636" stroke-width="1.5" stroke-linecap="round" stroke-linejoin="round"/>
<path d="M12 13C13.6569 13 15 11.6569 15 10C15 8.34315 13.6569 7 12 7C10.3431 7 9 8.34315 9 10C9 11.6569 10.3431 13 12 13Z" stroke="#363636" stroke-width="1.5" stroke-linecap="round" stroke-linejoin="round"/>
</svg>
