<svg width="24" height="24" viewBox="0 0 24 24" fill="none" xmlns="http://www.w3.org/2000/svg">
<g clip-path="url(#clip0_70_368)">
<path d="M23 12L23 9C23 7.89543 22.1046 7 21 7L3 7C1.89543 7 0.999999 7.89543 0.999999 9L1 21C1 22.1046 1.89543 23 3 23L6 23" stroke="#363636" stroke-width="1.5" stroke-linecap="round" stroke-linejoin="round"/>
<path d="M21 4L3 4" stroke="#363636" stroke-width="1.5" stroke-linecap="round" stroke-linejoin="round"/>
<path d="M18 1L7 1" stroke="#363636" stroke-width="1.5" stroke-linecap="round" stroke-linejoin="round"/>
<path d="M14 23V17.375H11.0664C10.693 17.375 10.5065 17.375 10.3639 17.4431C10.2385 17.503 10.1366 17.5987 10.0727 17.7163C10 17.85 10 18.025 10 18.375V23H14ZM14 23H18M14 23V14C14 13.65 14 13.475 14.0727 13.3413C14.1366 13.2237 14.2385 13.128 14.3639 13.0681C14.5065 13 14.693 13 15.0664 13H16.9331C17.3064 13 17.4936 13 17.6363 13.0681C17.7617 13.128 17.8632 13.2237 17.9271 13.3413C17.9997 13.475 18 13.65 18 14V23M18 23L22 23V16.5C22 16.15 21.9997 15.975 21.9271 15.8413C21.8632 15.7237 21.7617 15.628 21.6363 15.5681C21.4936 15.5 21.3067 15.5 20.9333 15.5H18V23Z" stroke="#363636" stroke-width="1.5" stroke-linecap="round" stroke-linejoin="round"/>
</g>
<defs>
<clipPath id="clip0_70_368">
<rect width="24" height="24" fill="white"/>
</clipPath>
</defs>
</svg>
