<svg id="Layer_1" data-name="Layer 1" xmlns="http://www.w3.org/2000/svg" viewBox="0 0 500 500"><defs><style>.cls-1{fill:#6E350c;}.cls-2{fill:#eA6f31;}.cls-3{fill:#b54f12;}.cls-4{fill:#f48746;}.cls-5{fill:#f9c3a3;}.cls-6{fill:#fce1d1;}.cls-7{fill:#6E350c;}</style></defs><path class="cls-1" d="M295.86,347H204.14A14.82,14.82,0,0,1,194,343L97.49,251.49a14.8,14.8,0,0,1-3-17.41l30-59.36V30.13a14.83,14.83,0,0,1,7.25-12.74L157.51,2.07a14.8,14.8,0,0,1,20.55,5.65l34.86,63.91h74.16L321.94,7.72a14.79,14.79,0,0,1,20.55-5.64l25.82,15.31a14.81,14.81,0,0,1,7.26,12.74V174.72l30,59.36a14.8,14.8,0,0,1-3,17.41L306.05,343A14.82,14.82,0,0,1,295.86,347Z"/><path class="cls-2" d="M334.93,14.81,295.86,86.43H204.14L165.07,14.81,139.23,30.13V178.24l64.91,108.2h91.72l64.9-108.2V30.13ZM204,207.53A10.57,10.57,0,1,1,214.59,197,10.57,10.57,0,0,1,204,207.53Zm92,0A10.57,10.57,0,1,1,306.56,197,10.57,10.57,0,0,1,296,207.53Z"/><polygon class="cls-3" points="295.86 86.43 360.76 30.13 360.76 135.69 295.86 86.43"/><polygon class="cls-3" points="204.14 86.43 139.24 30.13 139.24 135.69 204.14 86.43"/><path class="cls-4" d="M295.86,286.44l-26.61-78.91a9.88,9.88,0,0,0-9.49-7.16H240.24a9.88,9.88,0,0,0-9.49,7.16l-26.61,78.91v0l43.11-12.5a9.89,9.89,0,0,1,5.5,0l43.11,12.5v0Z"/><path class="cls-5" d="M252.75,273.94a9.89,9.89,0,0,0-5.5,0l-43.11,12.5v45.77h91.72V286.44Zm14.3,36.75a4.94,4.94,0,0,1-4.94,4.93H237.89a4.93,4.93,0,0,1-4.93-4.93V299.27a4.93,4.93,0,0,1,3.56-4.74L248.63,291a4.91,4.91,0,0,1,2.74,0l12.12,3.51a4.94,4.94,0,0,1,3.56,4.74Z"/><polygon class="cls-6" points="204.14 286.44 204.14 332.21 107.67 240.75 139.24 178.24 204.14 286.44"/><polygon class="cls-6" points="295.86 286.44 295.86 332.21 392.33 240.75 360.76 178.24 295.86 286.44"/><path class="cls-7" d="M146.86,498.32l-20.17-32.57-5.15,6v26.58H107.67V424.78h13.87v14.29c0,4.51-.11,8.19-.21,11a20,20,0,0,0,0,4.2h.21a21.19,21.19,0,0,0,2.21-2.84c1.36-1.89,3.36-4.51,6-7.77l15.65-18.91h16.49l-26,30.47,27,43.07Z"/><path class="cls-7" d="M180.15,498.32V424.78H194v73.54Z"/><path class="cls-7" d="M261.35,424.78v13.34H243.07v60.2H229.2v-60.2H211.13V424.78Z"/><path class="cls-7" d="M309.45,445.9l-.74.63a15.41,15.41,0,0,0-4.62-7.78,11,11,0,0,0-7.25-2.73,8.55,8.55,0,0,0-6.09,2,6.69,6.69,0,0,0-2.21,5.15,5.89,5.89,0,0,0,1.16,3.37,15.08,15.08,0,0,0,3.15,3.15,46.19,46.19,0,0,0,4.73,3.15c1.78,1.05,3.78,2.21,6,3.36s4.42,2.42,6.63,3.79a32.91,32.91,0,0,1,6,4.72,23.19,23.19,0,0,1,4.42,6.1,17.37,17.37,0,0,1,1.67,7.87,20.92,20.92,0,0,1-1.67,8.51,19.39,19.39,0,0,1-4.84,6.73,22.44,22.44,0,0,1-7.35,4.41,24.78,24.78,0,0,1-9.46,1.68,29.08,29.08,0,0,1-9.87-1.57,20.74,20.74,0,0,1-7.57-4.31,24.35,24.35,0,0,1-5.25-6.83,36.93,36.93,0,0,1-3.15-8.51l13.13-3.57a16.73,16.73,0,0,0,4.31,8.72,11.55,11.55,0,0,0,8.72,3.46,9.69,9.69,0,0,0,6.62-2.2,8,8,0,0,0,1.36-10,12.82,12.82,0,0,0-3.15-3.26,33.88,33.88,0,0,0-4.73-3.05c-1.78-.94-3.67-2-5.78-3.15q-3.61-2.21-6.93-4.41a38.35,38.35,0,0,1-5.88-4.73,21.19,21.19,0,0,1-4.1-5.88A18,18,0,0,1,275.1,443a16.72,16.72,0,0,1,1.57-7,19.41,19.41,0,0,1,4.42-6.2,22.6,22.6,0,0,1,7.13-4.41,25.55,25.55,0,0,1,9.67-1.79,24.78,24.78,0,0,1,15.66,5.25,24.34,24.34,0,0,1,5.35,6,26.14,26.14,0,0,1,3.36,7.67Z"/><path class="cls-7" d="M392.22,424.78l.11,46.33c0,9.14-2.32,16.18-6.83,21.22s-10.93,7.46-19.23,7.46-14.71-2.42-19.22-7.46-6.73-12.19-6.73-21.33V424.78h13.87v46.64c0,10.2,4,15.24,12,15.24s12.08-5,12.08-15.24V424.78Z"/></svg>
