<svg viewBox="0 0 500 500" xmlns="http://www.w3.org/2000/svg"><g fill="#fff"><path d="m148 498.34-20-32.22-5.09 5.93v26.29h-13.7v-72.75h13.72v14.14c0 4.46-.11 8.1-.21 10.91a19.61 19.61 0 0 0 0 4.16h.21a20.68 20.68 0 0 0 2.18-2.81c1.35-1.87 3.33-4.47 5.92-7.7l15.49-18.7h16.31l-25.77 30.14 26.71 42.61z"/><path d="m180.9 498.34v-72.75h13.72v72.75z"/><path d="m261.23 425.59v13.2h-18.09v59.55h-13.71v-59.55h-17.88v-13.2z"/><path d="m308.8 446.48-.72.62a15.33 15.33 0 0 0 -4.57-7.69 10.84 10.84 0 0 0 -7.18-2.7 8.43 8.43 0 0 0 -6 2 6.61 6.61 0 0 0 -2.18 5.1 5.81 5.81 0 0 0 1.14 3.32 14.57 14.57 0 0 0 3.12 3.12 45 45 0 0 0 4.67 3.12c1.77 1 3.74 2.18 5.93 3.32s4.36 2.4 6.54 3.75a32.74 32.74 0 0 1 5.93 4.67 22.79 22.79 0 0 1 4.36 6 17.08 17.08 0 0 1 1.66 7.79 20.52 20.52 0 0 1 -1.66 8.42 18.93 18.93 0 0 1 -4.84 6.68 22.3 22.3 0 0 1 -7.28 4.37 24.59 24.59 0 0 1 -9.35 1.66 28.77 28.77 0 0 1 -9.77-1.56 20.56 20.56 0 0 1 -7.48-4.26 24 24 0 0 1 -5.2-6.75 36.77 36.77 0 0 1 -3.11-8.42l13-3.53a16.54 16.54 0 0 0 4.26 8.62 11.4 11.4 0 0 0 8.62 3.43 9.59 9.59 0 0 0 6.55-2.18 7.93 7.93 0 0 0 1.35-9.87 12.7 12.7 0 0 0 -3.11-3.23 32.85 32.85 0 0 0 -4.68-3c-1.77-.94-3.64-2-5.72-3.12-2.39-1.45-4.68-2.91-6.86-4.36a39.16 39.16 0 0 1 -5.82-4.68 20.94 20.94 0 0 1 -4.05-5.82 17.8 17.8 0 0 1 -1.56-7.69 16.55 16.55 0 0 1 1.56-7 19.55 19.55 0 0 1 4.37-6.14 22.74 22.74 0 0 1 7.06-4.36 25.17 25.17 0 0 1 9.56-1.76 24.59 24.59 0 0 1 15.49 5.19 24.07 24.07 0 0 1 5.3 5.93 25.91 25.91 0 0 1 3.32 7.58z"/><path d="m390.68 425.59.11 45.83c0 9-2.29 16-6.76 21s-10.8 7.38-19 7.38-14.55-2.4-19-7.38-6.65-12.06-6.65-21.1v-45.73h13.71v46.14c0 10.09 3.95 15.07 11.85 15.07s11.95-5 11.95-15.07v-46.14z"/><path d="m405.11 243.64-33.48-66.31v-157.92a3.17 3.17 0 0 0 -1.47-2.58l-27.67-16.41a3 3 0 0 0 -4.16 1.14l-41 75.15h-94.67l-41-75.15a3 3 0 0 0 -4.16-1.14l-27.66 16.41a3.14 3.14 0 0 0 -1.47 2.58v157.92l-33.48 66.31a3 3 0 0 0 .61 3.52l103.32 98c.29.22.62.39.93.59a3 3 0 0 0 1.13.23h98.24a3.37 3.37 0 0 0 2.06-.82l103.32-98a3 3 0 0 0 .61-3.52zm-151.33 34a13.68 13.68 0 0 0 -7.56 0l-40.67 11.79 26.72-79.22a7.61 7.61 0 0 1 7.28-5.49h20.9a7.65 7.65 0 0 1 7.32 5.62l26.68 79.09zm-119.42-100.43v-43.21l67.53-51.25h96.22l67.52 51.25v43.25c-11.86 19.79-53.19 88.68-65.75 109.62l-26.39-78.25a13.62 13.62 0 0 0 -13-9.83h-20.9a13.57 13.57 0 0 0 -13 9.7l-26.43 78.38zm0-151.24 61.77 53.59-61.77 46.88zm231.27 100.47-61.76-46.88 61.76-53.56zm-23.52-119.28 21.42 12.71-53.83 46.69zm-184.22 0 32.41 59.4-53.83-46.69zm40 328.81-96.65-91.62 30.35-60.1c16.29 27.14 50.21 83.69 66.3 110.51zm6-39.79 44-12.76a7.57 7.57 0 0 1 4.22 0l44 12.76v43.82h-92.23zm98.22 39.82v-41.24l66.3-110.52 30.35 60.11z"/><path d="m200.75 209.41c15-.46 15-22.18 0-22.64-14.97.46-14.96 22.23 0 22.64z"/><path d="m299.25 209.41c15-.46 15-22.18 0-22.64-14.96.46-14.96 22.23 0 22.64z"/><path d="m264.44 302.59-13-3.76a5.25 5.25 0 0 0 -2.94 0l-13 3.76a5.29 5.29 0 0 0 -3.82 5.08v12.22a5.29 5.29 0 0 0 5.29 5.29h26.03a5.29 5.29 0 0 0 5.29-5.29v-12.22a5.29 5.29 0 0 0 -3.85-5.08z"/></g></svg>