<svg id="Layer_1" data-name="Layer 1" xmlns="http://www.w3.org/2000/svg" viewBox="0 0 500 500"><defs><style>.cls-1{fill:#79350c;}.cls-2{fill:#eC6C2B;}.cls-3{fill:#b54f12;}.cls-4{fill:#f48746;}.cls-5{fill:#f9c3a3;}.cls-6{fill:#fce1d1;}</style></defs><path class="cls-1" d="M316.08,500H183.92a21.34,21.34,0,0,1-14.68-5.85l-139-131.78a21.33,21.33,0,0,1-4.36-25.09l43.18-85.53V43.41A21.33,21.33,0,0,1,79.52,25.06L116.74,3a21.33,21.33,0,0,1,29.6,8.13l50.24,92.09H303.42l50.24-92.09A21.33,21.33,0,0,1,383.26,3l37.22,22.07a21.35,21.35,0,0,1,10.45,18.35V251.75l43.18,85.53a21.33,21.33,0,0,1-4.36,25.09l-139,131.78A21.34,21.34,0,0,1,316.08,500Z"/><path class="cls-2" d="M372.38,21.33l-56.3,103.21H183.92L127.62,21.33,90.4,43.41V256.83l93.52,155.9H316.08l93.52-155.9V43.41ZM183.74,299A15.24,15.24,0,1,1,199,283.8,15.23,15.23,0,0,1,183.74,299Zm132.52,0a15.24,15.24,0,1,1,15.23-15.23A15.23,15.23,0,0,1,316.26,299Z"/><polygon class="cls-3" points="316.08 124.53 409.6 43.41 409.6 195.52 316.08 124.53"/><polygon class="cls-3" points="183.92 124.53 90.4 43.41 90.4 195.52 183.92 124.53"/><path class="cls-4" d="M316.08,412.73,277.73,299a14.21,14.21,0,0,0-13.67-10.3H235.94A14.21,14.21,0,0,0,222.27,299L183.92,412.73v0l62.12-18a14.22,14.22,0,0,1,7.92,0l62.12,18v0Z"/><path class="cls-5" d="M254,394.72a14.22,14.22,0,0,0-7.92,0l-62.12,18v65.94H316.08V412.73Zm20.6,52.94a7.11,7.11,0,0,1-7.11,7.11h-34.9a7.11,7.11,0,0,1-7.11-7.11V431.21a7.12,7.12,0,0,1,5.13-6.83L248,419.33a7,7,0,0,1,4,0l17.45,5.05a7.12,7.12,0,0,1,5.13,6.83Z"/><polygon class="cls-6" points="183.92 412.73 183.92 478.67 44.92 346.89 90.4 256.83 183.92 412.73"/><polygon class="cls-6" points="316.08 412.73 316.08 478.67 455.08 346.89 409.6 256.83 316.08 412.73"/></svg>
