<?xml version="1.0" encoding="UTF-8" standalone="no"?>
<svg
   xmlns:dc="http://purl.org/dc/elements/1.1/"
   xmlns:cc="http://creativecommons.org/ns#"
   xmlns:rdf="http://www.w3.org/1999/02/22-rdf-syntax-ns#"
   xmlns:svg="http://www.w3.org/2000/svg"
   xmlns="http://www.w3.org/2000/svg"
   xmlns:sodipodi="http://sodipodi.sourceforge.net/DTD/sodipodi-0.dtd"
   xmlns:inkscape="http://www.inkscape.org/namespaces/inkscape"
   enable-background="new 0 0 512 512"
   id="Layer_1"
   version="1.1"
   viewBox="0 0 1536 512"
   xml:space="preserve"
   inkscape:version="0.91 r13725"
   sodipodi:docname="logo.svg"
   width="1536"
   height="512"><metadata
     id="metadata15"><rdf:RDF><cc:Work
         rdf:about=""><dc:format>image/svg+xml</dc:format><dc:type
           rdf:resource="http://purl.org/dc/dcmitype/StillImage" /><dc:title /></cc:Work></rdf:RDF></metadata><defs
     id="defs13" /><sodipodi:namedview
     pagecolor="#ffffff"
     bordercolor="#666666"
     borderopacity="1"
     objecttolerance="10"
     gridtolerance="10"
     guidetolerance="10"
     inkscape:pageopacity="0"
     inkscape:pageshadow="2"
     inkscape:window-width="1920"
     inkscape:window-height="1125"
     id="namedview11"
     showgrid="false"
     showguides="false"
     inkscape:zoom="0.4609375"
     inkscape:cx="1129.5712"
     inkscape:cy="169.22034"
     inkscape:window-x="0"
     inkscape:window-y="23"
     inkscape:window-maximized="1"
     inkscape:current-layer="Layer_1" /><g
     id="g3"
     transform="translate(-46,0)"><polygon
       points="244,142 244,184 244,226 208,247 172,268 136,247 100,226 100,184 100,142 136,121 172,100 208,121 "
       stroke-miterlimit="2.6131"
       id="polygon5"
       style="clip-rule:evenodd;fill:none;fill-rule:evenodd;stroke:#EEEEEE;stroke-width:7.99989986;stroke-linecap:round;stroke-linejoin:round;stroke-miterlimit:2.61310005" /><polygon
       points="412,142 412,184 412,226 376,247 340,268 304,247 268,226 268,184 268,142 304,121 340,100 376,121 "
       stroke-miterlimit="2.6131"
       id="polygon7"
       style="clip-rule:evenodd;fill:none;fill-rule:evenodd;stroke:#EEEEEE;stroke-width:7.99989986;stroke-linecap:round;stroke-linejoin:round;stroke-miterlimit:2.61310005" /><polygon
       points="328,286 328,328 328,370 292,391 256,412 220,391 184,370 184,328 184,286 220,265 256,244 292,265 "
       stroke-miterlimit="2.6131"
       id="polygon9"
       style="clip-rule:evenodd;fill:none;fill-rule:evenodd;stroke:#EEEEEE;stroke-width:7.99989986;stroke-linecap:round;stroke-linejoin:round;stroke-miterlimit:2.61310005" /></g><g
     transform="scale(1.035633,0.96559302)"
     style="font-style:normal;font-variant:normal;font-weight:bold;font-stretch:normal;font-size:284.88787842px;line-height:237.9999876%;font-family:'Source Sans Pro Light';-inkscape-font-specification:'Source Sans Pro Light,  Bold';letter-spacing:0px;word-spacing:0px;fill:#EEEEEE;fill-opacity:1;stroke:none;stroke-width:1px;stroke-linecap:butt;stroke-linejoin:miter;stroke-opacity:1"
     id="text3343"><path
       d="m 428.86631,267.98635 c 0,59.82646 32.19233,97.71655 78.62906,97.71655 24.21547,0 41.30874,-10.25597 55.83802,-26.77947 l -7.97686,-8.26174 c -13.67462,15.38394 -27.91901,23.07591 -47.29139,23.07591 -40.45408,0 -65.52421,-33.61677 -65.52421,-85.75125 0,-52.13448 25.35502,-84.89658 66.66376,-84.89658 17.09328,0 30.7679,7.69197 40.73897,19.08748 l 7.97686,-8.54663 c -9.97107,-11.68041 -27.06435,-22.50615 -48.71583,-22.50615 -47.86116,0 -80.33838,37.32032 -80.33838,96.86188 z"
       style="font-style:normal;font-variant:normal;font-weight:normal;font-stretch:normal;font-family:'Source Sans Pro Light';-inkscape-font-specification:'Source Sans Pro Light, ';letter-spacing:11.40442753px"
       id="path3349" /><path
       d="m 594.39955,267.98635 c 0,59.82646 32.19233,97.71655 80.33838,97.71655 24.78524,0 44.15762,-8.83153 55.83802,-21.3666 l 0,-74.35573 -57.54735,0 0,11.11063 45.01229,0 0,58.40201 c -9.11642,9.11641 -25.07014,14.24439 -42.16341,14.24439 -42.73318,0 -67.80332,-33.61677 -67.80332,-85.75125 0,-52.13448 26.49458,-84.89658 69.51265,-84.89658 20.51192,0 33.61677,8.54663 43.30295,19.08748 l 7.69198,-8.54663 c -9.97108,-10.54085 -25.9248,-22.50615 -50.99493,-22.50615 -49.85538,0 -83.18726,37.32032 -83.18726,96.86188 z"
       style="font-style:normal;font-variant:normal;font-weight:normal;font-stretch:normal;font-family:'Source Sans Pro Light';-inkscape-font-specification:'Source Sans Pro Light, ';letter-spacing:11.40442753px"
       id="path3351" /><path
       d="m 808.77769,362.28424 28.2039,0 27.63412,-112.53071 c 3.13377,-14.52928 6.55243,-27.91901 9.4013,-42.4483 l 1.13956,0 c 2.84888,14.52929 5.69775,27.91902 9.11641,42.4483 l 28.2039,112.53071 28.48879,0 38.74475,-186.88645 -22.79103,0 -19.65727,101.70498 c -3.70354,19.94215 -7.12219,40.16919 -10.54085,60.39623 l -1.13955,0 c -4.55821,-20.22704 -9.11641,-40.73897 -13.67462,-60.39623 l -25.92479,-101.70498 -21.65148,0 -25.9248,101.70498 c -4.27332,19.94215 -8.83152,40.16919 -13.10484,60.39623 l -1.13955,0 c -3.41866,-20.22704 -7.40709,-40.1692 -10.82574,-60.39623 l -19.65727,-101.70498 -24.50035,0 39.59941,186.88645 z"
       style="font-style:normal;font-variant:normal;font-weight:normal;font-stretch:normal;line-height:237.99996376%;font-family:'Source Sans Pro';-inkscape-font-specification:'Source Sans Pro'"
       id="path3353" /><path
       d="m 1023.3517,362.28424 23.6457,0 0,-186.88645 -23.6457,0 0,186.88645 z"
       style="font-style:normal;font-variant:normal;font-weight:normal;font-stretch:normal;line-height:237.99996376%;font-family:'Source Sans Pro';-inkscape-font-specification:'Source Sans Pro'"
       id="path3355" /><path
       d="m 1133.5187,194.48528 31.3377,0 c 29.0586,0 45.2972,8.83152 45.2972,33.33188 0,24.21547 -16.2386,36.18076 -45.2972,36.18076 l -31.3377,0 0,-69.51264 z m 105.6934,167.79896 -47.2914,-81.47793 c 25.3551,-6.26754 41.8786,-23.93058 41.8786,-52.98915 0,-38.74475 -27.3493,-52.41937 -65.5243,-52.41937 l -58.402,0 0,186.88645 23.6457,0 0,-78.91394 33.9017,0 45.0123,78.91394 26.7794,0 z"
       style="font-style:normal;font-variant:normal;font-weight:normal;font-stretch:normal;line-height:237.99996376%;font-family:'Source Sans Pro';-inkscape-font-specification:'Source Sans Pro'"
       id="path3357" /><path
       d="m 1286.5347,362.28424 110.5365,0 0,-20.22704 -86.8908,0 0,-67.80331 70.9371,0 0,-20.22704 -70.9371,0 0,-58.68691 84.0419,0 0,-19.94215 -107.6876,0 0,186.88645 z"
       style="font-style:normal;font-variant:normal;font-weight:normal;font-stretch:normal;line-height:237.99996376%;font-family:'Source Sans Pro';-inkscape-font-specification:'Source Sans Pro'"
       id="path3359" /></g></svg>
